<?xml version="1.0" encoding="UTF-8"?>
<svg version="1.1" xmlns="http://www.w3.org/2000/svg" width="128" height="128">
<path d="M0 0 C4.09333905 -0.07408587 8.18641933 -0.1285704 12.28027344 -0.16479492 C13.67324622 -0.17989358 15.06617138 -0.20037444 16.45898438 -0.22631836 C18.45942885 -0.26265122 20.46021827 -0.27811192 22.4609375 -0.29296875 C24.26763916 -0.31653442 24.26763916 -0.31653442 26.11083984 -0.34057617 C27.0642627 -0.22818604 28.01768555 -0.1157959 29 0 C29.66 0.99 30.32 1.98 31 3 C32.65438613 3.69658363 34.32254318 4.36096883 36 5 C36.60038589 5.50768921 37.20077179 6.01537842 37.8193512 6.53845215 C40.56774564 8.38052318 42.22521804 8.37780336 45.51538086 8.38476562 C47.17246315 8.39993225 47.17246315 8.39993225 48.86302185 8.41540527 C50.05162308 8.41238403 51.2402243 8.40936279 52.46484375 8.40625 C53.69030411 8.41708618 54.91576447 8.42792236 56.17835999 8.43908691 C60.09812702 8.47339546 64.01760243 8.48895195 67.9375 8.5 C73.09272934 8.51454939 78.2473055 8.54820193 83.40234375 8.59375 C84.58892075 8.59072876 85.77549774 8.58770752 86.99803162 8.58459473 C88.65984215 8.59976135 88.65984215 8.59976135 90.35522461 8.61523438 C91.81272377 8.61831604 91.81272377 8.61831604 93.29966736 8.62145996 C96.62120895 9.08708278 98.39584565 9.87863664 101 12 C103.09053623 16.42136654 103.28670258 20.55052081 103.38232422 25.39477539 C103.39879501 26.10938431 103.41526581 26.82399323 103.43223572 27.56025696 C103.48322358 29.90598218 103.5198899 32.25163859 103.5546875 34.59765625 C103.58358479 36.23620534 103.61273295 37.87475003 103.64212036 39.51329041 C103.70092825 42.94018703 103.75173954 46.36709973 103.79785156 49.79418945 C103.85823313 54.1816794 103.94614717 58.56814851 104.04099846 62.95501041 C104.10975439 66.33577161 104.16005422 69.7166251 104.20520401 73.09777641 C104.22974866 74.71538028 104.26090563 76.33289808 104.29885483 77.950243 C104.34991963 80.21190979 104.37513979 82.47248571 104.39404297 84.73461914 C104.4146579 86.0200209 104.43527283 87.30542267 104.45651245 88.629776 C103.92022916 92.58891183 102.78991732 94.19940134 100 97 C97.74200252 98.12899874 96.5028855 98.13474639 93.99674988 98.15390015 C93.15981094 98.16250061 92.32287201 98.17110107 91.46057129 98.17996216 C90.54054321 98.18422211 89.62051514 98.18848206 88.67260742 98.19287109 C87.70498978 98.20104858 86.73737213 98.20922607 85.74043274 98.21765137 C82.52878443 98.24252472 79.31718035 98.2590257 76.10546875 98.2734375 C75.01028742 98.27876118 73.91510609 98.28408485 72.78673744 98.28956985 C66.99088871 98.31630891 61.19506159 98.33568207 55.39916992 98.35009766 C49.40658615 98.36675416 43.41455141 98.41153866 37.42217541 98.4624691 C32.81968031 98.4960902 28.21731638 98.50766945 23.61470985 98.51332474 C21.40546786 98.52005059 19.1962349 98.53530704 16.98711205 98.55921555 C13.896142 98.59076115 10.80666429 98.59091956 7.71557617 98.58349609 C6.80162079 98.59990143 5.88766541 98.61630676 4.9460144 98.63320923 C0.51986865 98.5896572 -1.40852469 98.44417487 -5.04472351 95.71353149 C-8.43889709 91.00309952 -8.13017028 86.96372939 -8.0534668 81.29736328 C-8.04707184 80.52613129 -8.04067688 79.75489929 -8.03408813 78.96029663 C-8.01132727 76.41354676 -7.98070248 73.8669685 -7.94921875 71.3203125 C-7.92997979 69.5467854 -7.9109242 67.7732563 -7.89204407 65.99972534 C-7.85107464 62.28247814 -7.80585729 58.56530987 -7.75805664 54.84814453 C-7.69751273 50.09138414 -7.65056873 45.33459801 -7.60722637 40.57765388 C-7.57181062 36.91436822 -7.52757982 33.25122746 -7.48087502 29.58806992 C-7.45987202 27.8346789 -7.44195721 26.08124801 -7.4272213 24.32779312 C-7.40557007 21.87212275 -7.37164686 19.41690758 -7.3347168 16.96142578 C-7.33098557 16.24122253 -7.32725433 15.52101929 -7.32341003 14.7789917 C-7.24351292 10.49792286 -6.55941236 6.98566988 -5 3 C-3.35 2.67 -1.7 2.34 0 2 C0 1.34 0 0.68 0 0 Z M42 10 C42 10.33 42 10.66 42 11 C59.82 11 77.64 11 96 11 C96 10.67 96 10.34 96 10 C78.18 10 60.36 10 42 10 Z " fill="#53C1F7" transform="translate(16,15)"/>
<path d="M0 0 C4.09333905 -0.07408587 8.18641933 -0.1285704 12.28027344 -0.16479492 C13.67324622 -0.17989358 15.06617138 -0.20037444 16.45898438 -0.22631836 C18.45942885 -0.26265122 20.46021827 -0.27811192 22.4609375 -0.29296875 C24.26763916 -0.31653442 24.26763916 -0.31653442 26.11083984 -0.34057617 C27.0642627 -0.22818604 28.01768555 -0.1157959 29 0 C29.66 0.99 30.32 1.98 31 3 C32.65438613 3.69658363 34.32254318 4.36096883 36 5 C36.60038589 5.50768921 37.20077179 6.01537842 37.8193512 6.53845215 C40.56774564 8.38052318 42.22521804 8.37780336 45.51538086 8.38476562 C47.17246315 8.39993225 47.17246315 8.39993225 48.86302185 8.41540527 C50.05162308 8.41238403 51.2402243 8.40936279 52.46484375 8.40625 C53.69030411 8.41708618 54.91576447 8.42792236 56.17835999 8.43908691 C60.09812702 8.47339546 64.01760243 8.48895195 67.9375 8.5 C73.09272934 8.51454939 78.2473055 8.54820193 83.40234375 8.59375 C84.58892075 8.59072876 85.77549774 8.58770752 86.99803162 8.58459473 C88.65984215 8.59976135 88.65984215 8.59976135 90.35522461 8.61523438 C91.81272377 8.61831604 91.81272377 8.61831604 93.29966736 8.62145996 C96.62120895 9.08708278 98.39584565 9.87863664 101 12 C103.09053623 16.42136654 103.28670258 20.55052081 103.38232422 25.39477539 C103.39879501 26.10938431 103.41526581 26.82399323 103.43223572 27.56025696 C103.48322358 29.90598218 103.5198899 32.25163859 103.5546875 34.59765625 C103.58358479 36.23620534 103.61273295 37.87475003 103.64212036 39.51329041 C103.70092825 42.94018703 103.75173954 46.36709973 103.79785156 49.79418945 C103.85823313 54.1816794 103.94614717 58.56814851 104.04099846 62.95501041 C104.10975439 66.33577161 104.16005422 69.7166251 104.20520401 73.09777641 C104.22974866 74.71538028 104.26090563 76.33289808 104.29885483 77.950243 C104.34991963 80.21190979 104.37513979 82.47248571 104.39404297 84.73461914 C104.4146579 86.0200209 104.43527283 87.30542267 104.45651245 88.629776 C103.92022916 92.58891183 102.78991732 94.19940134 100 97 C97.74200252 98.12899874 96.5028855 98.13474639 93.99674988 98.15390015 C93.15981094 98.16250061 92.32287201 98.17110107 91.46057129 98.17996216 C90.54054321 98.18422211 89.62051514 98.18848206 88.67260742 98.19287109 C87.70498978 98.20104858 86.73737213 98.20922607 85.74043274 98.21765137 C82.52878443 98.24252472 79.31718035 98.2590257 76.10546875 98.2734375 C75.01028742 98.27876118 73.91510609 98.28408485 72.78673744 98.28956985 C66.99088871 98.31630891 61.19506159 98.33568207 55.39916992 98.35009766 C49.40658615 98.36675416 43.41455141 98.41153866 37.42217541 98.4624691 C32.81968031 98.4960902 28.21731638 98.50766945 23.61470985 98.51332474 C21.40546786 98.52005059 19.1962349 98.53530704 16.98711205 98.55921555 C13.896142 98.59076115 10.80666429 98.59091956 7.71557617 98.58349609 C6.80162079 98.59990143 5.88766541 98.61630676 4.9460144 98.63320923 C0.51986865 98.5896572 -1.40852469 98.44417487 -5.04472351 95.71353149 C-8.43889709 91.00309952 -8.13017028 86.96372939 -8.0534668 81.29736328 C-8.04707184 80.52613129 -8.04067688 79.75489929 -8.03408813 78.96029663 C-8.01132727 76.41354676 -7.98070248 73.8669685 -7.94921875 71.3203125 C-7.92997979 69.5467854 -7.9109242 67.7732563 -7.89204407 65.99972534 C-7.85107464 62.28247814 -7.80585729 58.56530987 -7.75805664 54.84814453 C-7.69751273 50.09138414 -7.65056873 45.33459801 -7.60722637 40.57765388 C-7.57181062 36.91436822 -7.52757982 33.25122746 -7.48087502 29.58806992 C-7.45987202 27.8346789 -7.44195721 26.08124801 -7.4272213 24.32779312 C-7.40557007 21.87212275 -7.37164686 19.41690758 -7.3347168 16.96142578 C-7.33098557 16.24122253 -7.32725433 15.52101929 -7.32341003 14.7789917 C-7.24351292 10.49792286 -6.55941236 6.98566988 -5 3 C-3.35 2.67 -1.7 2.34 0 2 C0 1.34 0 0.68 0 0 Z M42 10 C42 10.33 42 10.66 42 11 C59.82 11 77.64 11 96 11 C96 10.67 96 10.34 96 10 C78.18 10 60.36 10 42 10 Z M-5.29434204 22.84692383 C-6.25321697 25.77260579 -6.27014387 28.37031791 -6.29052734 31.44921875 C-6.30328705 32.75737549 -6.31604675 34.06553223 -6.32919312 35.41333008 C-6.33225018 36.83805188 -6.33447826 38.26277567 -6.3359375 39.6875 C-6.34236618 41.15193818 -6.3490946 42.61637506 -6.35610962 44.08081055 C-6.36807335 47.14732848 -6.37179124 50.21373382 -6.37060547 53.28027344 C-6.37040199 57.20805602 -6.39773715 61.1351174 -6.43214989 65.06272888 C-6.45439159 68.08593052 -6.45844392 71.10895758 -6.45738602 74.13223267 C-6.45974483 75.5803171 -6.46858427 77.02840615 -6.48405075 78.47640991 C-6.5036575 80.50110551 -6.49536387 82.52601312 -6.48583984 84.55078125 C-6.48868988 85.70231689 -6.49153992 86.85385254 -6.49447632 88.0402832 C-5.89422791 91.633105 -4.81542788 92.76954549 -2 95 C1.38572332 96.69286166 5.2352596 96.15641511 8.96020508 96.16113281 C10.35311012 96.16858017 10.35311012 96.16858017 11.77415466 96.17617798 C14.85595431 96.190821 17.93770248 96.19760541 21.01953125 96.203125 C23.15703839 96.208875 25.29454551 96.21463275 27.43205261 96.22039795 C31.91865276 96.23091424 36.40523496 96.23675269 40.8918457 96.24023438 C46.6421443 96.2457183 52.392206 96.26974162 58.14243031 96.29820633 C62.55963332 96.31682688 66.97677923 96.32203802 71.39401817 96.32357025 C73.51391583 96.32659897 75.63381243 96.33463485 77.75367165 96.34775543 C80.71983491 96.3648024 83.685419 96.36293879 86.65161133 96.35644531 C87.52816376 96.3656601 88.40471619 96.37487488 89.30783081 96.3843689 C94.01979575 96.35204131 97.18576893 96.09022002 101 93 C102.39076547 90.21846905 102.15035883 87.92186896 102.17700195 84.80957031 C102.18983719 83.5077179 102.20267242 82.20586548 102.21589661 80.86456299 C102.22406499 79.43575419 102.23150853 78.00694109 102.23828125 76.578125 C102.24235678 75.85929893 102.2464323 75.14047287 102.25063133 74.3998642 C102.27149602 70.59340197 102.28579459 66.78697581 102.29516602 62.98046875 C102.3062168 59.05510863 102.34059933 55.13031754 102.38033772 51.20515823 C102.406531 48.18189466 102.41486033 45.15876592 102.41844749 42.13539886 C102.42330842 40.68895383 102.43490848 39.24251463 102.45348549 37.79618073 C102.47792431 35.76692947 102.47448748 33.7374012 102.4699707 31.70800781 C102.47877007 29.97831757 102.47877007 29.97831757 102.48774719 28.21368408 C101.79710749 23.6631754 99.91118058 20.5316936 96.30699158 17.64315796 C92.60767327 16.61183819 88.89820795 16.70539735 85.08813477 16.70947266 C84.18850006 16.70275543 83.28886536 16.69603821 82.36196899 16.68911743 C79.38839189 16.67012109 76.41504025 16.66621258 73.44140625 16.6640625 C71.3740174 16.65763633 69.30662948 16.65090811 67.23924255 16.64389038 C62.90581147 16.63191396 58.57246014 16.62821 54.23901367 16.62939453 C48.68596214 16.62959788 43.13342146 16.60228067 37.58049107 16.56785011 C33.31082306 16.54561589 29.04127874 16.5415559 24.77155876 16.54261398 C22.7242246 16.54025336 20.67688726 16.53140398 18.62961006 16.51594925 C15.76646208 16.49635735 12.90442558 16.50210034 10.04125977 16.51416016 C8.77322258 16.49730164 8.77322258 16.49730164 7.47956848 16.48010254 C1.54253497 16.54366184 -1.74363677 17.78034794 -5.29434204 22.84692383 Z " fill="#3395CD" transform="translate(16,15)"/>
<path d="M0 0 C0.89948868 -0.00511093 1.79897736 -0.01022186 2.72572327 -0.01548767 C5.70474874 -0.02940887 8.68354348 -0.02842484 11.66259766 -0.02612305 C13.73141567 -0.03000892 15.80023289 -0.03434336 17.86904907 -0.03910828 C22.20846134 -0.04657617 26.54779227 -0.04627532 30.88720703 -0.04101562 C36.44805316 -0.03522382 42.00856591 -0.05214237 47.56935692 -0.0753603 C51.84331204 -0.09009381 56.11718685 -0.09096979 60.39116287 -0.08785057 C62.4412769 -0.08836409 64.49139539 -0.09360759 66.54148483 -0.10366249 C69.40938701 -0.11600041 72.27663946 -0.1092507 75.14453125 -0.09765625 C75.99146042 -0.10529999 76.83838959 -0.11294373 77.71098328 -0.12081909 C82.39199695 -0.07899511 85.34041866 0.32625049 89.20166016 3.2746582 C88.87166016 3.9346582 88.54166016 4.5946582 88.20166016 5.2746582 C87.21166016 4.7796582 87.21166016 4.7796582 86.20166016 4.2746582 C83.20211256 4.1707015 80.22559337 4.12785691 77.22558594 4.12939453 C76.29537628 4.12603592 75.36516663 4.12267731 74.4067688 4.11921692 C71.32015664 4.10968877 68.23359862 4.10776283 65.14697266 4.10668945 C63.00706967 4.10347802 60.86716692 4.10011403 58.7272644 4.09660339 C54.23646536 4.09060735 49.74568558 4.08876397 45.25488281 4.08935547 C39.49557052 4.08945708 33.73638153 4.07580767 27.97709846 4.05858326 C23.5556481 4.04747353 19.13422763 4.04543595 14.71276474 4.04596519 C12.58925832 4.04478342 10.46575117 4.04035063 8.34225845 4.03263283 C5.37359191 4.02285433 2.40519415 4.02570264 -0.56347656 4.03173828 C-1.44362427 4.02611877 -2.32377197 4.02049927 -3.23059082 4.01470947 C-4.04095795 4.01890396 -4.85132507 4.02309845 -5.68624878 4.02742004 C-6.38790098 4.02687528 -7.08955318 4.02633051 -7.81246758 4.02576923 C-10.13865945 4.31731039 -11.76914476 5.12844724 -13.79833984 6.2746582 C-10.93525464 -0.3324615 -6.50749831 -0.01894502 0 0 Z " fill="#DDEBF4" transform="translate(25.79833984375,31.725341796875)"/>
<path d="M0 0 C0.66 0 1.32 0 2 0 C2.2475 0.61875 2.495 1.2375 2.75 1.875 C4.2555941 4.43450997 5.28277935 4.89833493 8 6 C9.997824 6.29583687 9.997824 6.29583687 12.09863281 6.25396729 C12.90610962 6.25960693 13.71358643 6.26524658 14.54553223 6.27105713 C15.86104065 6.26498444 15.86104065 6.26498444 17.203125 6.25878906 C18.13362671 6.2622937 19.06412842 6.26579834 20.02282715 6.26940918 C23.09862732 6.27821165 26.17419749 6.27238252 29.25 6.265625 C31.38704472 6.26697207 33.52408914 6.26891296 35.66113281 6.27142334 C40.14000364 6.27437259 44.61879469 6.27008329 49.09765625 6.26074219 C54.84123077 6.24934782 60.58461837 6.25590835 66.32818604 6.26788712 C70.74106253 6.27511104 75.15389464 6.27281532 79.56677246 6.26763153 C81.68469261 6.26629651 83.80261677 6.26793759 85.92053223 6.27259064 C88.87942187 6.27766453 91.83800798 6.26993333 94.796875 6.25878906 C95.67388062 6.26283752 96.55088623 6.26688599 97.45446777 6.27105713 C98.26194458 6.26541748 99.06942139 6.25977783 99.90136719 6.25396729 C100.60042175 6.25321323 101.29947632 6.25245918 102.01971436 6.25168228 C104.38555931 5.95099775 105.9720795 5.24320185 108 4 C109.26804566 1.9664052 109.26804566 1.9664052 110 0 C110.66 0 111.32 0 112 0 C111.68007838 2.87929455 110.81069808 4.25325038 109.0534668 6.60409546 C104.80130864 9.94055389 101.595004 9.705557 96.33203125 9.64697266 C95.36397552 9.65573425 94.3959198 9.66449585 93.39852905 9.67352295 C90.20272835 9.69550624 87.00831445 9.68096736 83.8125 9.6640625 C81.58959691 9.66743092 79.36669561 9.67228376 77.14379883 9.67855835 C72.4866379 9.68592826 67.8299567 9.67521983 63.17285156 9.65185547 C57.20375891 9.62336824 51.2357903 9.63977148 45.26673889 9.66971779 C40.6770379 9.68778718 36.08760331 9.68203424 31.49789429 9.66907883 C29.29706692 9.66574386 27.09621536 9.66983505 24.89541626 9.68147659 C21.81894891 9.69417885 18.74430062 9.67481566 15.66796875 9.64697266 C14.30410538 9.66215439 14.30410538 9.66215439 12.91268921 9.67764282 C8.42761707 9.60245751 6.58276121 9.45726393 2.9465332 6.60409546 C1.18930192 4.25325038 0.31992162 2.87929455 0 0 Z " fill="#0D2734" transform="translate(8,104)"/>
<path d="M0 0 C0.33 0 0.66 0 1 0 C1 26.4 1 52.8 1 80 C0.67 80 0.34 80 0 80 C0 53.6 0 27.2 0 0 Z " fill="#4FC1F3" transform="translate(7,24)"/>
<path d="M0 0 C0.33 0 0.66 0 1 0 C1 23.43 1 46.86 1 71 C0.67 71 0.34 71 0 71 C0 47.57 0 24.14 0 0 Z " fill="#53C6F7" transform="translate(120,33)"/>
<path d="M0 0 C0.66 0 1.32 0 2 0 C1.52797514 4.24822374 -0.96655518 6.19989709 -4 9 C-4.66 8.67 -5.32 8.34 -6 8 C-6 7.34 -6 6.68 -6 6 C-5.38125 5.7525 -4.7625 5.505 -4.125 5.25 C-1.64931313 3.79371361 -1.04874998 2.62187494 0 0 Z " fill="#091A22" transform="translate(118,104)"/>
<path d="M0 0 C0.66 0 1.32 0 2 0 C2.2475 0.598125 2.495 1.19625 2.75 1.8125 C4.16444091 4.28777159 5.72860188 5.33430804 8 7 C8 7.66 8 8.32 8 9 C4.11980141 7.74155722 2.0588158 6.57583797 0 3 C0 2.01 0 1.02 0 0 Z " fill="#091C25" transform="translate(8,104)"/>
<path d="" fill="#3193CE" transform="translate(0,0)"/>
<path d="" fill="#3295D0" transform="translate(0,0)"/>
<path d="" fill="#359AD3" transform="translate(0,0)"/>
<path d="" fill="#359BD3" transform="translate(0,0)"/>
<path d="M0 0 C2 1 2 1 2 1 Z " fill="#369CD4" transform="translate(14,16)"/>
<path d="" fill="#3295D0" transform="translate(0,0)"/>
<path d="" fill="#369CD4" transform="translate(0,0)"/>
</svg>
